<svg xmlns="http://www.w3.org/2000/svg"  viewBox="0 0 2697 3333" shape-rendering="geometricPrecision" text-rendering="geometricPrecision" image-rendering="optimizeQuality" fill-rule="evenodd" clip-rule="evenodd"><path d="M371 1916h1955c33 0 63 13 85 35s35 52 35 85v28c50 0 105-5 126-36 10-14-5-37-27-59-35-36-88-69-120-88-2-1-4-3-6-5l-1072-862-1135 906c-1 1-3 2-5 3-46 33-73 62-83 85-3 7-4 12-3 15 2 5 7 10 16 15 24 14 64 23 114 24v-27c0-33 14-63 35-85 22-22 52-35 85-35zm2075 268v1029c0 33-14 63-35 85-22 22-52 35-85 35H371c-33 0-63-14-85-35-22-22-35-52-35-85V2184c-72-2-132-17-174-41-33-19-56-45-68-76-12-33-11-68 5-106 18-42 58-88 123-135l1150-918V698c0-30 23-56 53-60 147-18 227-92 253-178 11-37 13-77 7-116s-21-78-44-111c-52-78-146-130-267-106-50 10-98 39-135 84-36 44-62 104-71 177-4 33-34 56-67 52s-56-34-52-67c12-96 48-177 97-238 55-68 128-112 205-127 176-34 313 42 390 158 32 48 53 102 63 159 9 57 6 115-11 170-36 117-131 218-301 254v160l1084 871c37 22 96 60 140 105 59 61 93 134 40 211-55 80-147 88-226 88zm-107-53v-7-87c0-4-1-7-4-9-2-2-5-4-9-4H371c-3 0-7 1-9 4-2 2-4 6-4 9v606h1980v-511zM359 2941h1980v-192H359v192zm1980 107H359v164c0 4 1 7 4 9 2 2 6 4 9 4h1955c4 0 7-1 9-4 2-2 4-5 4-9v-164z" fill-rule="nonzero"/></svg>