<svg xmlns="http://www.w3.org/2000/svg"  viewBox="0 0 333334 277677" shape-rendering="geometricPrecision" text-rendering="geometricPrecision" image-rendering="optimizeQuality" fill-rule="evenodd" clip-rule="evenodd"><path d="M80917 242927V142766h45051c19099 3425 38198 13780 57297 25805h34991c15839 955 24133 17007 8747 27556-12274 8995-28460 8487-45050 6998-11442-563-11943 14819 0 14871 4140 320 8653-650 12588-654 20711-20 37770-3980 48209-20341l5248-12246 52049-25806c26047-8577 44556 18670 25369 37615-37699 27430-76367 50001-115908 68231-28722 17470-57443 16877-86165 0l-42426-21869zM206386 21146c9848-10272 16744-19149 31927-20894 28496-3276 54699 25897 40309 54620-4100 8184-12434 17908-21658 27454-10126 10481-21326 20749-29176 28536l-21402 21229-17681-17032c-21273-20491-55963-46279-57107-78232-802-22381 16860-36719 37175-36453 18157 237 25789 9272 37614 20771zM0 133142h67358v119844H0V133142z"/></svg>