<svg xmlns="http://www.w3.org/2000/svg" viewBox="0 0 3321 3333" shape-rendering="geometricPrecision" text-rendering="geometricPrecision" image-rendering="optimizeQuality" fill-rule="evenodd" clip-rule="evenodd"><path d="M1747 1590c175 175 306 361 378 520 76 171 84 316 6 395-37 37-89 55-151 55L601 3174c-350 173-521 199-580 106-56-88 10-274 130-538l627-1412c5-51 22-93 54-125 79-79 224-71 395 6 160 71 346 203 520 378zm1396 823c41 41 41 108 0 150-41 41-108 41-150 0-41-41-41-108 0-150 41-41 108-41 150 0zm100-493c29-5 57 14 63 43 5 29-14 57-43 63-143 27-264-61-389-151-164-119-336-245-554-21-21 21-55 22-76 1s-22-55-1-76c283-291 494-137 695 9 106 77 208 151 306 133zm25-1609c30 0 54 24 54 54s-24 54-54 54c-248 1-313 200-382 411-80 245-165 504-500 562-31 5-63 11-98 15-34 5-67 8-101 11-30 2-55-21-57-50-2-30 21-55 50-57 31-2 62-6 93-10 29-4 62-9 95-15 272-46 346-273 416-489 81-249 158-485 484-486zM1363 44c5-29 34-49 63-43 29 5 49 34 43 63-18 93 47 192 113 294 138 212 283 435-82 724-23 18-57 14-76-9-18-23-14-57 9-76 288-228 171-409 59-581-78-120-155-238-129-373zm1226 160l-103 203 152 154-216-29-104 192-34-214-215-38 193-100-32-224 156 160 202-105zm-488 660c41 41 41 108 0 150-41 41-108 41-150 0-41-41-41-108 0-150 41-41 108-41 150 0zm-154-724c41 41 41 108 0 150-41 41-108 41-150 0-41-41-41-108 0-150 41-41 108-41 150 0zm-683 523c41 41 41 108 0 150-41 41-108 41-150 0-41-41-41-108 0-150 41-41 108-41 150 0zm1818 603c41 41 41 108 0 150-41 41-108 41-150 0-41-41-41-108 0-150 41-41 108-41 150 0zm-332 811l-128 84 37 141-116-89-125 77 52-136-112-94 146 7 57-141 37 146 153 7zM878 1682c108 315 344 722 684 975l272-121c-32-10-65-22-99-37-160-71-346-203-520-378-146-146-261-299-337-438zm292 1149c-291-255-464-534-607-818l-181 407c69 144 260 388 442 566l346-154zm-708 319c-136-117-198-188-265-314-92 206-141 348-108 399 29 45 140 22 373-86zm396-1814v6c-3 40 5 88 22 142 8 26 19 53 32 82 67 151 193 328 361 496s345 294 496 361c32 14 63 26 92 35 40 12 77 19 109 19 2 0 5 0 7 1 41 0 73-11 96-33 52-52 40-165-22-304-67-151-193-328-361-496s-345-294-496-361c-139-62-252-75-304-22-18 18-28 43-32 74z" fill-rule="nonzero"/></svg>