<svg xmlns="http://www.w3.org/2000/svg" viewBox="0 0 333334 164753" shape-rendering="geometricPrecision" text-rendering="geometricPrecision" image-rendering="optimizeQuality" fill-rule="evenodd" clip-rule="evenodd"><path d="M206144 164604c-393-1511-850-2864-1365-4078-3051-7193-10660-10472-18128-13689-1264-544-2524-1088-3846-1690-169 213-341 423-517 629-1023 1258-2224 2374-3562 3343-3713 2686-8502 4229-13438 4470-4919 241-10011-806-14357-3297-2162-1240-4140-2834-5823-4802-1195 570-2428 1133-3689 1708-7175 3271-15267 6961-18226 13118-630 1311-1135 2743-1519 4289h-4269l87-396c465-2041 1114-3939 1952-5685 3615-7523 12431-11543 20246-15106 1735-791 3421-1559 4932-2313 1033-1354 1877-2815 2534-4380 562-1339 982-2752 1261-4237-1580-943-3094-2046-4527-3318-5862-5200-9961-9444-12602-14354-2679-4983-3803-10513-3657-18198l423-22246c4-237 47-465 124-676l-5182-1632c-751-16397 8745-26208 20498-30924 4285-1719-2888-11094 6963-7494 13158 4810 42364 11378 49273 19640 5616 6714 5841 10358 5715 19118-41 2843-487 5341-1799 6272-598 424-1330 597-2172 526v19029c0 10543-3767 19347-9555 25871-3263 3678-7163 6626-11388 8747 252 1356 602 2650 1047 3882 531 1472 1210 2876 2032 4213 1425 662 3052 1363 4686 2067 8221 3541 16598 7152 20311 15905 708 1669 1318 3556 1815 5691h-4279zm-49934-28860c-1337-349-2652-789-3940-1323-319 1356-740 2661-1267 3915-663 1580-1497 3084-2502 4510 1109 1229 2366 2283 3727 3161 3677 2375 8111 3494 12467 3387 4333-107 8571-1430 11884-3937 881-667 1695-1418 2428-2251 218-265 426-539 622-820-767-1343-1421-2762-1961-4256-411-1139-752-2312-1021-3524-4243 1517-8531 2271-12739 2209-2611-39-5187-391-7698-1072zm-4375-6162c1376 723 2785 1316 4222 1782l57 18c2653 820 5420 1217 8209 1217 4466 0 8986-1013 13188-2924 4215-1917 8105-4732 11296-8330 5146-5802 8496-13664 8496-23117V78959h6c-48-1324-239-2548-599-3650-346-1061-845-1999-1522-2795-2553-2997-4980-2875-8433-2700-312 15-618 31-1062 50-13667 600-22629 586-29891-47-6702-584-11961-1684-18084-3301-573 1356-1251 2680-2036 3974-1000 1648-2162 3226-3486 4731l-407 21459c-131 6925 842 11835 3168 16161 2366 4398 6186 8332 11689 13214 1452 1288 3005 2377 4633 3274 201 57 388 143 557 253zm3356-12709c-963-626-1236-1914-611-2876 626-963 1914-1237 2877-611 2372 1542 4648 2375 6812 2404 2096 28 4173-712 6226-2306 909-706 2219-542 2925 367s542 2219-367 2925c-2826 2194-5774 3211-8833 3170-2990-40-6001-1103-9029-3072zm-7765-26091c2484 0 4498 2014 4498 4498s-2014 4498-4498 4498-4498-2014-4498-4498 2014-4498 4498-4498zm33931 0c2484 0 4498 2014 4498 4498s-2014 4498-4498 4498-4498-2014-4498-4498 2014-4498 4498-4498zm-72109 16800zM37129 64374c3089 0 5593 2504 5593 5593s-2504 5593-5593 5593-5593-2505-5593-5593c0-3089 2504-5593 5593-5593zm6832 35624c-1197-832-1494-2478-661-3676 832-1197 2479-1493 3676-661 2687 1869 5321 2794 7899 2789 2584-4 5222-940 7909-2789 1197-827 2839-526 3665 671 827 1197 526 2838-671 3665-3583 2465-7218 3713-10904 3719-3691 7-7331-1227-10914-3719zm29879-35624c3089 0 5593 2504 5593 5593s-2504 5593-5593 5593-5593-2505-5593-5593c0-3089 2504-5593 5593-5593zM2324 164753c4485-16137 10393-21024 22409-30957 1822-1506 3787-3130 5675-4730 37-32 76-63 115-92 421-546 708-911 981-1258 1402-1782 2563-3258 3496-5223-5922-3170-11435-7915-16145-14337-3530 884-6528 1669-9033 2324-2881 754-5140 1346-6611 1675-205 46-419 69-640 63-1454-34-2605-1241-2571-2696l1509-63688c-1-96 3-192 13-289 376-3774 1229-7409 2507-10919 1280-3511 2973-6881 5033-10122 5587-8791 12554-15046 20750-19047C37953 1484 47270-232 57622 24c8895 220 17513 2425 25178 6822 7161 4107 13487 10117 18428 18192 1824 2981 3395 6115 4721 9393 1304 3224 2366 6573 3194 10041 71 238 109 491 109 751l-6 62357c-1 829-391 1644-1120 2157-1192 838-2838 552-3676-640-1196-1698-2740-3127-4570-4317-1383-898-2939-1668-4639-2320-5467 8893-12626 15543-20539 19727 713 2059 1702 3621 2926 5555l529 836c4167 1885 8232 4294 12075 7839 3982 3674 7685 8531 10951 15234 2093 4295 3680 8670 5013 13100h-5532c-1163-3678-2523-7286-4230-10788-2958-6071-6257-10420-9774-13664-2931-2704-6043-4669-9250-6239-2016 2513-4366 4619-6933 6300-4912 3217-10634 4880-16349 4894-5728 14-11443-1630-16324-5022-937-652-1843-1367-2713-2147-1170-989-2285-2077-3335-3261-1328 1111-2523 2099-3659 3038-10710 8854-16187 13384-20263 26889H2321zm65810-48200c600-270 1208-554 1824-852 78-37 157-70 236-100 8985-4495 16915-12775 21912-24170 1757-4009 2560-7650 2902-11278 1054-11185 81-26300 81-37906-9182 1417-13010-4727-14700-13888-18759 17107-40615 20874-65100 13309 0 11487-917 25909-15 37020 272 3357 927 6751 2364 10513 10606 27783 32350 35136 50496 27352zm-28310 8147c-1121 2402-2495 4152-4155 6263 957 1247 2005 2362 3124 3345 200 164 401 324 603 481 4332 3346 9410 5078 14488 5155 5072 76 10165-1498 14533-4759 1720-1285 3323-2823 4764-4614l-11-19c-1354-2139-2467-3897-3306-6144-9739 3794-20281 4019-30040 293zM3213 112155zm324869 52597c-494-1938-1074-3668-1730-5213-3750-8841-13102-12870-22280-16825-1553-669-3102-1337-4726-2078-207 263-419 520-636 774-1258 1545-2734 2918-4378 4107-4564 3302-10449 5198-16515 5494-6045 296-12304-991-17645-4053-2657-1523-5089-3483-7157-5902-1468 702-2984 1393-4533 2100-8817 4020-18763 8555-22399 16122-801 1668-1438 3495-1917 5473h-5239c48-231 98-461 150-689 572-2508 1369-4841 2400-6987 4443-9246 15278-14187 24883-18566 2134-972 4205-1917 6062-2843 1269-1665 2307-3460 3114-5383 691-1646 1207-3383 1549-5207-1941-1159-3803-2515-5565-4078-7204-6391-12241-11607-15486-17641-3294-6124-4674-12920-4495-22366l519-27340c5-292 58-572 152-831l-6368-2007c-923-20152 10747-32210 25193-38005 5267-2112-3550-13636 8557-9209 16172 5912 52064 13982 60558 24137 6903 8254 7180 12730 7023 23496-51 3496-596 6563-2210 7709-736 522-1635 734-2670 646v23387c0 12957-4630 23777-11743 31796-4010 4521-8803 8144-13996 10750 310 1667 740 3257 1287 4771 653 1809 1487 3535 2497 5177 1752 814 3751 1675 5759 2540 10104 4353 20400 8789 24963 19547 893 2105 1658 4489 2276 7197h-5253zm-61422-35671c-1643-430-3260-970-4842-1626-392 1667-910 3270-1557 4812-815 1943-1840 3791-3074 5543 1363 1511 2907 2806 4580 3885 4520 2919 9969 4294 15322 4162 5325-131 10533-1757 14606-4839 1083-819 2083-1742 2983-2766 268-326 524-663 765-1008-942-1650-1746-3394-2410-5230-505-1400-924-2843-1255-4331-5213 1864-10484 2792-15657 2716-3209-48-6375-481-9461-1317zm-5376-7574c1691 889 3423 1619 5189 2191l70 22c3261 1009 6662 1496 10090 1496 5488 0 11043-1245 16208-3593 5180-2356 9961-5815 13883-10237 6324-7130 10441-16793 10441-28411V59293h7c-59-1627-294-3131-736-4486-426-1302-1040-2456-1872-3434-3137-3683-6119-3533-10363-3318-383 19-759 39-1306 63-16796 738-27811 720-36736-58-8236-718-14701-2069-22226-4056-704 1666-1538 3294-2502 4883-1230 2026-2657 3965-4285 5814l-500 26373c-162 8510 1034 14546 3894 19862 2908 5406 7602 10241 14365 16240 1785 1583 3694 2921 5694 4024 248 70 477 175 686 310zm4124-15619c-1183-769-1520-2352-751-3535s2352-1520 3535-751c2916 1896 5713 2919 8372 2955 2576 34 5128-875 7652-2835 1117-868 2728-666 3595 451 868 1117 667 2727-450 3595-3472 2696-7096 3946-10856 3896-3674-50-7376-1356-11096-3776zm-9544-32067c3053 0 5528 2475 5528 5528s-2475 5529-5528 5529-5528-2476-5528-5529 2475-5528 5528-5528zm41702 0c3053 0 5528 2475 5528 5528s-2475 5529-5528 5529-5528-2476-5528-5529 2475-5528 5528-5528z" fill-rule="nonzero"/></svg>