<svg xmlns="http://www.w3.org/2000/svg" viewBox="0 0 310733 333334" shape-rendering="geometricPrecision" text-rendering="geometricPrecision" image-rendering="optimizeQuality" fill-rule="evenodd" clip-rule="evenodd"><path d="M209481 176143c5637 0 10740 2285 14433 5979 3694 3694 5979 8798 5979 14433 0 5636-2285 10740-5979 14433-3693 3694-8797 5979-14433 5979s-10740-2285-14433-5979c-3694-3694-5979-8797-5979-14433s2285-10740 5979-14433c3694-3694 8798-5979 14433-5979zm-64006 9968l85731-46928 73-39 22370-12245c2124-1157 4784-373 5941 1751 8806 16087 14236 33591 16177 51468 1926 17741 412 35864-4650 53350-53 269-130 529-229 778-10783 36457-35277 65144-66205 82073-30926 16928-68287 22099-104803 11530-274-53-539-131-793-232-36457-10783-65144-35277-82074-66205C26 230378-5123 192863 5593 156225l9-27c10724-36639 35282-65466 66319-82455 31033-16987 68548-22136 105186-11420 2323 673 3661 3102 2987 5426h1l-34621 118362zm80431-164108c12831 5064 24548 11900 34946 20138 11111 8802 20707 19203 28539 30748l10953-5995c-7854-13270-18081-25166-30298-34990-11798-9488-25445-17037-40594-22019l-3545 12119zm55769 55109c-7250-10541-16072-20041-26249-28104-9525-7547-20249-13839-31993-18555l-27352 93511 85593-46852zM227716 175c17987 5261 34087 13849 47822 24894 14266 11472 25997 25607 34659 41432 1156 2124 372 4784-1751 5941l-117443 64286c-2124 1157-4784 372-5941-1751-574-1056-670-2243-360-3313h-1L222288 3163c673-2323 3102-3661 5426-2987zm11454 144635c5990 12026 9733 24924 11160 38069 1580 14556 319 29431-3877 43776-8737 29871-28756 53374-54057 67223-25291 13844-55864 18040-85721 9307-29871-8737-53374-28756-67223-54057-13844-25291-18040-55864-9307-85721 8737-29871 28756-53374 54057-67223 24102-13193 53002-17624 81507-10453l4726-16155c-32974-8464-66442-3404-94324 11858-29067 15911-52065 42911-62103 77228v1c-10041 34331-5218 69482 10698 98559 15910 29065 42907 52062 77220 62101l9 3c34331 10042 69481 5218 98559-10698 29065-15910 52062-42907 62101-77220l3-9c4820-16480 6267-33590 4448-50354-1663-15322-6059-30344-13105-44320l-14769 8085zm-7689 4209l-91045 49837c-509 284-1075 467-1664 530l-50 6h-4l-50 5h-4l-50 4h-4l-50 4h-3l-51 3h-4l-50 2h-4l-50 2h-4l-51 1h-112l-51-1h-4l-51-2h-4l-51-3h-4l-51-4h-4l-52-4h-3l-52-5h-4l-51-6c-257-27-516-77-772-150-2323-673-3661-3103-2987-5426l29153-99666c-26189-6493-52715-2389-74854 9729-23325 12767-41779 34433-49833 61969-8058 27550-4187 55759 8585 79094 12767 23324 34433 41779 61970 49833 27550 8058 55759 4187 79093-8585 23325-12767 41779-34433 49833-61970 3868-13224 5029-26956 3568-40411-1304-12012-4700-23795-10127-34787zm8260-98832c9094 0 16467 7372 16467 16466s-7372 16467-16467 16467c-9094 0-16467-7372-16467-16467 0-9094 7372-16466 16467-16466zm-87356 201057l21934-26322 19193 26596-41127-274zm-45033 23287c-2137 383-4180-1039-4563-3176s1039-4180 3176-4563c4088-740 7622-1005 10936-243 3591 825 6685 2740 9530 6328 111 140 217 257 318 353 928 881 2444 953 4052 601 2160-473 4350-1659 5968-2942 460-365 855-720 1170-1052 5778-6085 13124-2596 19269 322 2041 969 2720 4116 3241 2952 39-87 78-170 118-249 588-1819 2431-2986 4376-2670 2145 349 3601 2372 3252 4517-229 1401-551 2059-1018 2513-2847 5037-7666 2749-13330 60-3806-1807-8354-3967-10205-2019-579 610-1245 1217-1971 1792-2442 1936-5809 3739-9206 4483-3950 865-7996 382-11142-2605-379-360-733-744-1057-1154-1633-2060-3288-3131-5122-3553-2111-485-4685-258-7792 305zm5837-64118c-230-2162 1337-4102 3499-4332 2163-230 4102 1337 4332 3499 805 7471 33 14049-2330 19724-2412 5794-6431 10567-12067 14308-1813 1200-4257 704-5457-1110-1200-1813-704-4257 1110-5457 4296-2852 7339-6441 9138-10763 1848-4439 2436-9732 1775-15870zm-31615-39786c-2137 392-4187-1023-4578-3160s1023-4187 3160-4578c2278-423 4562-1176 6680-1874 7057-2326 12694-4185 19090 2715 1746 1883 4524 1947 7648 2019 2372 55 4886 113 7558 700 2128 459 3481 2558 3021 4686-459 2128-2557 3481-4686 3021-2066-454-4115-501-6048-546-4907-113-9270-214-13259-4516-2959-3192-6467-2036-10859-589-2293 756-4765 1570-7728 2121zm7924-34048l20947-30223 21844 31121-42791-898zm-16815 54358c9094 0 16467 7372 16467 16467 0 9094-7372 16467-16467 16467-9094 0-16466-7372-16466-16467 0-9094 7372-16467 16466-16467zm145651-3234c-2265-2265-5396-3667-8854-3667-3457 0-6588 1402-8854 3667-2265 2265-3667 5396-3667 8853s1402 6588 3667 8853 5396 3667 8854 3667c3457 0 6588-1402 8854-3667 2265-2265 3667-5396 3667-8853s-1402-6588-3667-8853z" fill-rule="nonzero"/></svg>