<svg xmlns="http://www.w3.org/2000/svg"  viewBox="0 0 333333 191281" shape-rendering="geometricPrecision" text-rendering="geometricPrecision" image-rendering="optimizeQuality" fill-rule="evenodd" clip-rule="evenodd"><path d="M6884 177512h34146c-2530-661-4411-2973-4411-5704V5892c0-3241 2652-5893 5893-5893h246759c3241 0 5893 2652 5893 5893v165916c0 2730-1881 5042-4411 5704h35697c3787 0 6884 3098 6884 6884 0 3787-3098 6884-6884 6884H6885c-3787 0-6884-3097-6884-6884 0-3786 3098-6884 6884-6884zM46693 9235h239236v160911H46693V9235zm110293 170851h19361c1816 0 3301 1485 3301 3301 0 1815-1485 3300-3301 3300h-19361c-1815 0-3300-1485-3300-3300s1485-3301 3300-3301z"/></svg>