<?xml version="1.0" ?><!DOCTYPE svg  PUBLIC '-//W3C//DTD SVG 1.1//EN'  'http://www.w3.org/Graphics/SVG/1.1/DTD/svg11.dtd'><svg enable-background="new 0 0 512 512" height="512px" id="Grooming" version="1.1" viewBox="0 0 512 512" width="512px" xml:space="preserve" xmlns="http://www.w3.org/2000/svg" xmlns:xlink="http://www.w3.org/1999/xlink"><g><path d="M391.047,71.9h-59.381v12h34.719v16.813h-34.719v12h34.719v18h-34.719v12h34.719v18h-34.719v12h34.719v18h-34.719v12   h34.719v18h-34.719v12h34.719v18h-34.719v12h34.719v18h-34.719v12h34.719v18h-34.719v12h34.719v18h-34.719v12h34.719v18h-34.719v12   h34.719v18h-34.719v12h34.719v15.44h-34.719v12h59.381c15.473,0,28.059-12.587,28.059-28.059V99.958   C419.105,84.486,406.52,71.9,391.047,71.9z M407.105,412.095c0,8.854-7.203,16.059-16.059,16.059h-12.662V83.9h12.662   c8.855,0,16.059,7.204,16.059,16.058V412.095z"/><path d="M246.769,338.398c-15.108,0-28.174,8.895-34.248,21.72l-11.454-45.345l-1.973-9.562   c7.547-3.926,12.716-11.815,12.716-20.894c0-5.399-1.832-10.376-4.9-14.352c12.122-13.129,20.697-29.182,24.837-46.591   l21.292-105.909l-25.664-55.12l-39.198,189.964L148.979,62.347l-25.664,55.12l21.247,105.703l0.045,0.206   c4.151,17.456,12.762,33.548,24.936,46.697c-3.019,3.959-4.816,8.896-4.816,14.246c0,9.013,5.094,16.855,12.552,20.81   l-3.113,15.087l-9.429,39.329c-6.189-12.516-19.087-21.146-33.969-21.146c-20.884,0-37.875,16.99-37.875,37.874v35.506   c0,20.885,16.99,37.875,37.875,37.875s37.875-16.99,37.875-37.875v-17.057l16.755-69.887l0.064,0.013l0.415-2.009l2.362-9.851   l1.125,4.454l1.528,7.405l0.325-0.066l17.677,69.979v17.019c0,20.885,16.99,37.875,37.875,37.875   c20.884,0,37.876-16.99,37.876-37.875v-35.506C284.645,355.389,267.652,338.398,246.769,338.398z M156.644,411.778   c0,14.268-11.607,25.875-25.875,25.875c-14.267,0-25.875-11.607-25.875-25.875v-35.506c0-14.267,11.607-25.874,25.875-25.874   c14.268,0,25.875,11.607,25.875,25.874V411.778z M231.801,100.281l8.697,18.681l-20.45,101.737   c-3.619,15.143-11.021,29.128-21.479,40.626L231.801,100.281z M156.307,220.699l-20.45-101.737l8.697-18.681l33.23,161.044   C167.328,249.827,159.926,235.842,156.307,220.699z M191.543,295.379c-1.04,0.309-2.137,0.48-3.275,0.48   c-1.208,0-2.373-0.188-3.469-0.535c-1.876-0.592-3.541-1.657-4.869-3.048c-1.979-2.072-3.204-4.873-3.204-7.958   c0-1.942,0.487-3.771,1.338-5.379c1.238-2.338,3.251-4.205,5.7-5.247c1.384-0.589,2.906-0.915,4.503-0.915   c1.522,0,2.974,0.303,4.306,0.842c2.493,1.007,4.56,2.854,5.836,5.195c0.892,1.637,1.399,3.512,1.399,5.504   c0,3.164-1.282,6.034-3.352,8.121C195.11,293.799,193.426,294.82,191.543,295.379z M272.645,411.778   c0,14.268-11.607,25.875-25.876,25.875c-14.267,0-25.875-11.607-25.875-25.875v-35.506c0-14.267,11.607-25.874,25.875-25.874   c14.269,0,25.876,11.607,25.876,25.874V411.778z"/></g></svg>