<svg xmlns="http://www.w3.org/2000/svg" viewBox="0 0 1333.35 1166.17" shape-rendering="geometricPrecision" text-rendering="geometricPrecision" image-rendering="optimizeQuality" fill-rule="evenodd" clip-rule="evenodd"><path d="M589.29 889.89h154.74c7.36 0 13.33 5.97 13.33 13.33v231.65h544.69V363.56H971.51v771.31h-31.3V31.3H390.64v1103.57h-31.3V363.56H31.28v771.31h544.66V903.22c0-7.36 5.97-13.33 13.33-13.33zm45.42-791.24h63.9c11.95 0 21.73 9.78 21.73 21.69v95.29h95.26c11.95 0 21.72 9.74 21.72 21.69v63.94c0 11.91-9.78 21.69-21.72 21.69h-95.26v95.26c0 11.95-9.78 21.72-21.73 21.72h-63.9c-11.95 0-21.72-9.78-21.72-21.72v-95.26h-95.26c-11.95 0-21.69-9.78-21.69-21.69v-63.94c0-11.95 9.74-21.69 21.69-21.69h95.26v-95.29c0-11.92 9.78-21.69 21.72-21.69zM15.64 1166.17c-8.63 0-15.63-7-15.63-15.63v-795.3c0-12.68 10.3-22.94 22.97-22.94h336.38V27.48c0-7.53 3.08-14.36 8.06-19.36 0-3.82 15.54-8.11 19.44-8.11h557.2c7.55 0 14.43 3.08 19.41 8.06 5.12 5.77 8.06 11.48 8.06 19.41V332.3h338.81c12.62 0 23.02 10.39 23.02 23.02v795.22c0 8.63-7.03 15.63-15.66 15.63H15.65zm586.99-31.3H730.7V916.56H602.63v218.31zm451.57-364.45h172.57c1.44 0 2.62.89 2.62 1.9v50.97c0 1.01-1.2 1.9-2.62 1.9H1054.2c-1.42 0-2.65-.84-2.65-1.9v-50.97c0-1.03 1.2-1.9 2.65-1.9zm-948.81 0h172.57c1.44 0 2.62.89 2.62 1.9v50.97c0 1.01-1.2 1.9-2.62 1.9H105.39c-1.42 0-2.65-.84-2.65-1.9v-50.97c0-1.03 1.18-1.9 2.65-1.9zm948.81-111.5h172.57c1.44 0 2.62.87 2.62 1.9v50.95c0 1.03-1.2 1.9-2.62 1.9H1054.2c-1.42 0-2.65-.84-2.65-1.9v-50.95c0-1.06 1.2-1.9 2.65-1.9zm0-111.52h172.57c1.44 0 2.62.89 2.62 1.9v50.97c0 1.01-1.2 1.9-2.62 1.9H1054.2c-1.42 0-2.65-.87-2.65-1.9V549.3c0-1.04 1.2-1.9 2.65-1.9zM105.39 658.92h172.57c1.44 0 2.62.87 2.62 1.9v50.95c0 1.03-1.2 1.9-2.62 1.9H105.39c-1.42 0-2.65-.84-2.65-1.9v-50.95c0-1.06 1.18-1.9 2.65-1.9zm0-111.52h172.57c1.44 0 2.62.89 2.62 1.9v50.97c0 1.01-1.2 1.9-2.62 1.9H105.39c-1.42 0-2.65-.87-2.65-1.9V549.3c0-1.04 1.18-1.9 2.65-1.9zm672.33 171.85h92.08c1.44 0 2.62 1.2 2.62 2.65v92.08c0 1.42-1.18 2.62-2.62 2.62h-92.08c-1.44 0-2.65-1.18-2.65-2.62V721.9c0-1.47 1.18-2.65 2.65-2.65zm-158.3 0h92.08c1.44 0 2.62 1.2 2.62 2.65v92.08c0 1.42-1.2 2.62-2.62 2.62h-92.08c-1.44 0-2.65-1.18-2.65-2.62V721.9c0-1.47 1.18-2.65 2.65-2.65zm-158.33 0h92.08c1.47 0 2.65 1.2 2.65 2.65v92.08c0 1.42-1.2 2.62-2.65 2.62h-92.08c-1.42 0-2.62-1.18-2.62-2.62V721.9c0-1.47 1.18-2.65 2.62-2.65zm316.63-178.78h92.08c1.44 0 2.62 1.18 2.62 2.62v92.08c0 1.44-1.18 2.65-2.62 2.65h-92.08c-1.44 0-2.65-1.18-2.65-2.65v-92.08c0-1.44 1.18-2.62 2.65-2.62zm-158.3 0h92.08c1.44 0 2.62 1.18 2.62 2.62v92.08c0 1.44-1.2 2.65-2.62 2.65h-92.08c-1.44 0-2.65-1.18-2.65-2.65v-92.08c0-1.44 1.18-2.62 2.65-2.62zm-158.33 0h92.08c1.47 0 2.65 1.18 2.65 2.62v92.08c0 1.44-1.2 2.65-2.65 2.65h-92.08c-1.42 0-2.62-1.18-2.62-2.65v-92.08c0-1.44 1.18-2.62 2.62-2.62z" fill-rule="nonzero"/></svg>