<svg xmlns="http://www.w3.org/2000/svg" viewBox="0 0 1026.08 1333.33" shape-rendering="geometricPrecision" text-rendering="geometricPrecision" image-rendering="optimizeQuality" fill-rule="evenodd" clip-rule="evenodd"><path d="M413.85 229.48C393.27 168.76 374.74 107.36 359.09 45c58.33-64.02 283.77-55.51 348.6-1l-60.03 142.72c32.28-42.41 43.13-59.82 62.39-83.44 8.09 5.3 15.7 11.24 22.89 17.74 17.07 15.46 32.33 32.54 35.41 56.35 2 15.44-2.41 31.13-16.15 47.17L614.48 384.95c-17.73-2.91-35.05-7.16-51.86-13.13 7.81-18.38 17.23-38.61 25.04-56.99l-50.14 54.16c-52.24-11.02-94.24-4.45-133.39 16.26L264.46 217.62c-8.3-10-12.07-20-12.04-30 .13-40.52 60.47-75.49 92.18-88.72l69.25 130.59zm178.98 302.86l-27.26-124.67c116.75 21.72 303.89 259.22 364.36 367.2 30.87 55.12 57.9 115.84 80.03 183.72 44.09 164.28 1.62 317.96-176.59 353.76-111.66 22.43-319.9 24.02-437.33 17.94-126.24-6.53-321.61-6.33-372.64-135.95-82.37-209.22 68.54-458.47 206.14-611.02 18.11-20.07 36.83-38.78 56.2-56.05 50.05-44.04 104.02-96.29 168.45-118.02l-62.23 115.87 90.38-119.82h47.63l62.86 127.04zm-58.02 102.32v22.06c23.34 2.46 43.45 7.26 60.08 14.41 16.76 7.26 31.28 18.09 43.78 32.72 9.83 11.17 17.43 22.67 22.79 34.39 5.36 11.84 8.04 22.56 8.04 32.39 0 10.94-4.02 20.44-11.95 28.37-8.04 7.93-17.65 11.95-29.04 11.95-21.44 0-35.4-11.61-41.66-34.74-7.26-27.25-24.57-45.45-52.04-54.39v136.14c27.03 7.37 48.7 14.18 64.67 20.33 16.08 6.03 30.49 14.85 43.11 26.46 13.52 11.95 24.01 26.36 31.38 43 7.26 16.75 10.94 34.96 10.94 54.83 0 24.9-5.8 48.13-17.53 69.8-11.73 21.78-28.93 39.43-51.6 53.27-22.78 13.74-49.69 21.89-80.97 24.46v22.26c0 12.81-1.3 22.22-3.8 28.14-2.49 5.88-7.93 8.83-16.53 8.83-7.81 0-13.35-2.34-16.53-7.15-3.15-4.76-4.69-12.28-4.69-22.34v-29.07c-25.46-2.79-47.8-8.83-66.9-17.98-19.09-9.16-35.07-20.55-47.8-34.18-12.73-13.74-22.22-27.92-28.25-42.55-6.15-14.74-9.16-29.26-9.16-43.44 0-10.39 4.02-19.88 12.28-28.26 8.15-8.37 18.32-12.62 30.49-12.62 9.83 0 18.09 2.24 24.91 6.81 6.7 4.58 11.39 11.06 14.07 19.32 5.81 17.87 10.94 31.61 15.3 41.1 4.47 9.49 11.06 18.2 19.88 26.02 8.82 7.82 20.55 13.85 35.18 17.98V930.87c-29.26-8.15-53.61-17.08-73.26-27.02-19.66-9.94-35.63-24.01-47.8-42.33-12.17-18.32-18.32-41.88-18.32-70.69 0-37.53 11.95-68.35 35.85-92.25 23.9-24.01 58.41-37.97 103.53-41.88v-21.39c0-18.32 6.93-27.48 20.66-27.48 13.96 0 20.88 8.94 20.88 26.8zM493.27 845.8V720.49c-18.31 5.47-32.61 12.62-42.89 21.56-10.27 8.93-15.41 22.56-15.41 40.65 0 17.2 4.8 30.27 14.41 39.09 9.6 8.82 24.23 16.87 43.89 24.01zm41.54 97.16v143.4c22-4.36 38.98-13.18 51.04-26.46 11.95-13.41 17.98-28.81 17.98-46.57 0-18.99-5.81-33.62-17.53-44-11.62-10.39-28.81-19.21-51.49-26.36z"/></svg>