<svg xmlns="http://www.w3.org/2000/svg" viewBox="0 0 3016 2973" shape-rendering="geometricPrecision" text-rendering="geometricPrecision" image-rendering="optimizeQuality" fill-rule="evenodd" clip-rule="evenodd"><path d="M1826 1615h1017c48 0 91 19 122 51 31 31 51 75 51 122v1012c0 48-19 91-51 122-31 31-75 51-122 51H1826c-48 0-91-19-122-51-31-31-51-75-51-122V1788c0-48 19-91 51-122 31-31 75-51 122-51zM173 0h1017c48 0 91 19 122 51 31 31 51 75 51 122v1012c0 48-19 91-51 122-31 31-75 51-122 51H173c-47 0-91-19-122-51-31-31-51-75-51-122V173c0-48 19-91 51-122 2-2 5-4 7-6C89 17 129 1 173 1zm1008 182H181v995h1000V182zM1826 0h1017c48 0 91 19 122 51 31 31 51 75 51 122v1012c0 48-19 91-51 122-31 31-75 51-122 51H1826c-48 0-91-19-122-51-31-31-51-75-51-122V173c0-48 19-91 51-122 31-31 75-51 122-51zm1008 182H1834v995h1000V182zM173 1615h1017c48 0 91 19 122 51 31 31 51 75 51 122v1012c0 48-19 91-51 122-31 31-75 51-122 51H173c-47 0-91-19-122-51-31-31-51-75-51-122V1788c0-48 19-91 51-122 2-2 5-4 7-6 31-28 71-44 115-44zm1008 182H181v995h1000v-995zm1653 0H1834v995h1000v-995z" fill-rule="nonzero"/></svg>