<svg xmlns="http://www.w3.org/2000/svg" viewBox="0 0 333333 333333" shape-rendering="geometricPrecision" text-rendering="geometricPrecision" image-rendering="optimizeQuality" fill-rule="evenodd" clip-rule="evenodd"><path d="M292993 100503c-5285 5796-11441 10986-18354 15191-852 625-2007 701-2955 94-10209-6496-18789-14300-25532-22786-9300-11668-15153-24604-17161-37068-2046-12634-133-24794 6156-34681 2481-3902 5644-7463 9508-10531C253520 3657 263653-74 273749 1c9717 76 19320 3694 27616 11270 2917 2652 5360 5682 7368 8978 6762 11137 8220 25343 5247 39739-2936 14225-10209 28677-20987 40496v19zM82677 249739c-5285 5796-11441 10986-18354 15191-852 625-2008 701-2955 94-10209-6497-18789-14300-25532-22786-9300-11667-15153-24604-17161-37068-2045-12633-132-24794 6156-34681 2481-3902 5644-7463 9509-10531 8865-7065 18998-10796 29093-10720 9717 76 19320 3694 27616 11270 2917 2652 5361 5682 7368 8978 6762 11137 8220 25343 5247 39739-2936 14225-10209 28677-20987 40496v19zm-18475 29780c12244 0 22576 8179 25835 19371h162689c8039 0 15352-3295 20660-8602 5307-5307 8602-12621 8602-20660 0-8038-3295-15352-8602-20659s-12621-8602-20660-8602h-56946v2c-12772 0-24378-5219-32786-13627-8407-8408-13627-20014-13627-32786s5220-24378 13627-32786c8408-8408 20014-13627 32786-13627h51469c3530-10744 13642-18502 25567-18502 14860 0 26907 12047 26907 26907s-12047 26907-26907 26907c-11798 0-21821-7594-25452-18160h-51583c-8038 0-15352 3294-20659 8602-5307 5307-8602 12621-8602 20659s3294 15352 8602 20659c5268 5268 12513 8553 20481 8601v-1h57125c12773 0 24378 5220 32786 13627 8408 8408 13627 20014 13627 32786s-5219 24378-13627 32786-20013 13627-32786 13627H89339c-3870 10111-13664 17292-25136 17292-14860 0-26907-12047-26907-26907s12047-26907 26907-26907zm-2702-107818c11990 0 21706 9717 21706 21707s-9717 21707-21706 21707c-11990 0-21707-9717-21707-21707s9717-21707 21707-21707zM271816 22465c11990 0 21706 9717 21706 21707s-9717 21707-21706 21707c-11990 0-21707-9717-21707-21707s9717-21707 21707-21707z"/></svg>