<svg xmlns="http://www.w3.org/2000/svg"  viewBox="0 0 333333 333333" shape-rendering="geometricPrecision" text-rendering="geometricPrecision" image-rendering="optimizeQuality" fill-rule="evenodd" clip-rule="evenodd"><path d="M272026 108271c-2400-246-4147-2391-3902-4791 246-2400 2391-4146 4791-3901 5383 560 10511 2216 15199 5035 2267 1363 4424 2989 6446 4885 926-2246 2057-4349 3371-6294 2894-4285 6677-7800 11132-10380 2088-1209 4762-497 5972 1591 1209 2088 497 4762-1591 5971-3297 1909-6104 4520-8258 7711-2099 3107-3583 6772-4310 10882-156 1154-767 2243-1789 2974-1965 1407-4700 956-6108-1010-2752-3840-5908-6769-9348-8837-3570-2146-7485-3408-11606-3837zm-171675 31993v144896h16817l19583-21546h-10391v-13169h32182l-36304-40226 9774-8796 21969 24343v-940h53788c2370 0 4446 1252 5606 3130l15889 22489h29871c1987 0 3768 881 4976 2272l32704 32443h36519v13169H1897v-13169h88212V140264H5122c-2828 0-5121-2293-5121-5121 0-170 9-339 25-504 224-25544 10881-48636 27993-65365 16892-16513 40069-26833 65691-27190 494-159 1021-245 1568-245 556 0 1090 89 1591 252 25461 460 48483 10757 65286 27183 17225 16839 27912 40124 27998 65869 0 2817-2284 5101-5101 5101v20h-84699zm34581 144896h143238l-21719-21546H154516l-19583 21546zm41322-34715h36918l-8796-12450h-39357l11236 12450zm51407-193870c-2795 365-5357-1606-5721-4401s1606-5357 4401-5721c8850-1167 17399-121 25121 3324 4657 2078 8984 5018 12865 8859 2105-4750 4994-8925 8520-12418 5828-5774 13352-9647 21905-11139 2784-475 5427 1397 5902 4181s-1397 5426-4181 5901c-6456 1126-12097 4011-16424 8297-4280 4240-7322 9888-8652 16604l-17-3c-249 1276-983 2457-2143 3244-2331 1580-5502 971-7081-1360-4126-6080-9194-10319-14854-12844-5950-2654-12637-3447-19640-2524zm-72629 20021c-6951-6795-15099-12416-24109-16531 3481 5011 6405 10730 8801 17063 5548 14668 8274 32725 8533 52894h31516c-1365-20823-10563-39567-24740-53426zm-44949-22987c-3171-554-6403-933-9685-1132v77545h37656c-251-18924-2772-35759-7892-49293-4565-12067-11181-21416-20078-27120zm-19928-1154c-3235 181-6421 540-9548 1066-9011 5724-15694 15175-20287 27398-5071 13494-7570 30260-7820 49103h37656V52455zm-30352 7360c-9230 4137-17571 9847-24664 16781-14177 13859-23376 32603-24741 53426h31897c257-20076 2960-38063 8462-52704 2448-6514 5453-12383 9046-17503z" fill-rule="nonzero"/></svg>